<svg xmlns="http://www.w3.org/2000/svg" width="1200" height="630" viewBox="0 0 1200 630">
  <title>Puxel Open Graph preview</title>
  <defs>
    <pattern id="grid" width="32" height="32" patternUnits="userSpaceOnUse">
      <path d="M32 0H0V32" fill="none" stroke="#16130d" stroke-width="2" opacity="0.08" />
    </pattern>
    <pattern id="dots" width="16" height="16" patternUnits="userSpaceOnUse">
      <rect width="8" height="8" fill="#ffd23f" opacity="0.28" />
    </pattern>
  </defs>

  <rect width="1200" height="630" fill="#f8eedc" />
  <rect width="1200" height="630" fill="url(#grid)" />
  <rect x="818" y="0" width="382" height="630" fill="#16130d" />
  <rect x="818" y="0" width="382" height="630" fill="url(#dots)" />

  <rect x="74" y="88" width="952" height="430" fill="#863bff" />
  <rect x="56" y="70" width="952" height="430" fill="#fff9e9" stroke="#16130d" stroke-width="8" />

  <rect x="96" y="110" width="64" height="64" fill="#16130d" />
  <rect x="104" y="118" width="48" height="48" fill="#ffd23f" />
  <rect x="120" y="134" width="16" height="16" fill="#16130d" />

  <text x="96" y="256" fill="#16130d" font-family="Menlo, Monaco, monospace" font-size="100" font-weight="800">Puxel</text>
  <text x="100" y="312" fill="#863bff" font-family="Menlo, Monaco, monospace" font-size="26" font-weight="700">Brutalist-retro React UI kit</text>
  <text x="100" y="370" fill="#372f24" font-family="Menlo, Monaco, monospace" font-size="26">Hard shadows. Thick borders.</text>
  <text x="100" y="408" fill="#372f24" font-family="Menlo, Monaco, monospace" font-size="26">Pixel accents. Modern manners.</text>

  <rect x="100" y="452" width="118" height="42" fill="#ffd23f" stroke="#16130d" stroke-width="5" />
  <text x="124" y="481" fill="#16130d" font-family="Menlo, Monaco, monospace" font-size="20" font-weight="700">React</text>
  <rect x="238" y="452" width="152" height="42" fill="#47bfff" stroke="#16130d" stroke-width="5" />
  <text x="262" y="481" fill="#16130d" font-family="Menlo, Monaco, monospace" font-size="20" font-weight="700">CSS-first</text>
  <rect x="410" y="452" width="112" height="42" fill="#ff5a5f" stroke="#16130d" stroke-width="5" />
  <text x="435" y="481" fill="#16130d" font-family="Menlo, Monaco, monospace" font-size="20" font-weight="700">ARIA</text>

  <rect x="646" y="142" width="284" height="238" fill="#16130d" />
  <rect x="632" y="128" width="284" height="238" fill="#fffdf4" stroke="#16130d" stroke-width="7" />
  <rect x="660" y="160" width="154" height="28" fill="#ffd23f" stroke="#16130d" stroke-width="4" />
  <rect x="660" y="210" width="220" height="22" fill="#16130d" />
  <rect x="668" y="218" width="156" height="6" fill="#63d471" />
  <rect x="660" y="250" width="220" height="22" fill="#16130d" />
  <rect x="668" y="258" width="96" height="6" fill="#47bfff" />
  <rect x="660" y="294" width="88" height="42" fill="#863bff" stroke="#16130d" stroke-width="4" />
  <rect x="764" y="294" width="116" height="42" fill="#ffd23f" stroke="#16130d" stroke-width="4" />

  <rect x="752" y="402" width="204" height="118" fill="#ff5a5f" />
  <rect x="734" y="384" width="204" height="118" fill="#f8eedc" stroke="#16130d" stroke-width="7" />
  <rect x="760" y="414" width="48" height="48" fill="#16130d" />
  <rect x="768" y="422" width="32" height="32" fill="#63d471" />
  <rect x="824" y="414" width="82" height="14" fill="#16130d" />
  <rect x="824" y="444" width="58" height="14" fill="#863bff" />
  <rect x="824" y="474" width="44" height="14" fill="#ffd23f" />

  <rect x="1030" y="88" width="84" height="84" fill="#ffd23f" stroke="#16130d" stroke-width="7" />
  <rect x="1054" y="112" width="36" height="36" fill="#16130d" />
  <rect x="1042" y="430" width="84" height="84" fill="#47bfff" stroke="#16130d" stroke-width="7" />
  <rect x="1066" y="454" width="36" height="36" fill="#16130d" />
</svg>
